<?xml version="1.0" encoding="utf-8"?>
<!-- Generator: Adobe Illustrator 17.0.0, SVG Export Plug-In . SVG Version: 6.00 Build 0)  -->
<!DOCTYPE svg PUBLIC "-//W3C//DTD SVG 1.1//EN" "http://www.w3.org/Graphics/SVG/1.1/DTD/svg11.dtd">
<svg version="1.1" xmlns="http://www.w3.org/2000/svg" xmlns:xlink="http://www.w3.org/1999/xlink" x="0px" y="0px" width="1347px"
	 height="398.164px" viewBox="0 565.336 1347 398.164" enable-background="new 0 565.336 1347 398.164" xml:space="preserve">
<g id="Layer_3">
</g>
<g id="Layer_2">
</g>
<g id="Layer_1">
	<circle opacity="0.3" cx="1102.21" cy="841.296" r="207.081"/>
	<circle fill="#FFFFFF" cx="1097.457" cy="837.509" r="207.081"/>
	<circle fill="#F7F7F7" cx="1097.457" cy="837.509" r="184.439"/>
	<g>
		<circle opacity="0.3" cx="285.311" cy="882.157" r="272.264"/>
		<circle fill="#FFFFFF" cx="279.837" cy="879.967" r="272.264"/>
		<g>
			<g>
				<path fill="#895E25" d="M278.792,1110.049v19.173c134.395,0,243.778-107.056,247.541-240.541h-19.185
					C503.39,1011.576,402.596,1110.049,278.792,1110.049z"/>
				<path fill="#F9E3A5" d="M278.792,1110.049c123.804,0,224.599-98.473,228.355-221.368H278.792V1110.049z"/>
			</g>
			<path fill="#C6B3A7" d="M411.635,1035.174c10.462-13.287,8.639-32.17-4.069-42.176s-31.491-7.345-39.934,7.434l13.987,10.334
				l-11.28,10.428l20.283,15.969l7.542-13.509L411.635,1035.174z"/>
			<g>
				<path fill="none" d="M486.316,888.682c1.185,0.366,2.355,0.852,3.483,1.473c9.329,5.137,12.538,17.208,7.166,26.962
					l-9.986-6.038l-3.451,9.585l-14.89-8.199l6.21-7.984l-10.195-5.214c2.028-5.462,6.228-9.075,11.098-10.585H301.177l3.338,10.068
					l11.98-6.832l8.118,21.529l-13.412,2.759l5.91,14.331c-13.251,7.386-28.809,0.763-33.895-12.728
					c-3.953-10.484-0.397-22.008,7.997-29.13h-12.422v160.553c3.191,0.199,6.397,1.081,9.387,2.725
					c11.39,6.273,15.308,21.011,8.749,32.92l-12.193-7.373l-4.215,11.702l-1.73-0.953v21.793
					c123.804,0,224.599-98.473,228.355-221.368h-20.828V888.682z M311.926,979.461l-13.082,11.459
					c-12.636-11.402-11.228-30.321,1.259-40.602c12.488-10.281,31.324-8.03,42.073,5.025l-14.127,10.702l11.589,10.253
					l-19.93,16.409L311.926,979.461z M356.182,1064.434c-13.251,7.386-28.809,0.762-33.895-12.728
					c-5.088-13.489,2.223-28.737,16.327-34.055l4.97,14.995l11.98-6.832l8.118,21.53l-13.412,2.759L356.182,1064.434z
					 M382.903,940.992l-9.986-6.038l-3.451,9.585l-14.89-8.199l6.21-7.984l-10.193-5.214c3.9-10.507,15.816-14.249,25.145-9.112
					C385.066,919.166,388.274,931.239,382.903,940.992z M449.158,968.288l-25.813-0.382l2.636-15.134l-17.388,0.275
					c-2.26-16.87,11.055-30.384,27.227-30.145c16.174,0.239,29.082,14.142,28.831,31.051l-17.697-0.98L449.158,968.288z"/>
				<path fill="#C6B3A7" d="M435.82,922.901c-16.174-0.239-29.486,13.274-27.227,30.145l17.388-0.275l-2.636,15.134l25.813,0.382
					l-2.203-15.315l17.697,0.98C464.902,937.043,451.993,923.142,435.82,922.901z"/>
				<path fill="#C6B3A7" d="M328.049,966.047l14.127-10.702c-10.749-13.057-29.585-15.306-42.073-5.025
					c-12.487,10.281-13.897,29.198-1.259,40.601l13.082-11.459l7.781,13.247l19.93-16.409L328.049,966.047z"/>
				<path fill="#C6B3A7" d="M375.737,914.03c-9.329-5.137-21.245-1.395-25.145,9.112l10.193,5.214l-6.21,7.984l14.89,8.199
					l3.451-9.585l9.986,6.038C388.274,931.239,385.066,919.166,375.737,914.03z"/>
				<path fill="#C6B3A7" d="M464.656,899.266l10.195,5.214l-6.21,7.984l14.89,8.199l3.451-9.585l9.986,6.038
					c5.372-9.754,2.163-21.825-7.166-26.962c-1.13-0.621-2.297-1.107-3.483-1.473h-10.563
					C470.882,890.191,466.683,893.805,464.656,899.266z"/>
				<path fill="#C6B3A7" d="M355.566,1025.815l-11.98,6.832l-4.97-14.995c-14.105,5.319-21.415,20.566-16.327,34.055
					c5.088,13.489,20.645,20.114,33.895,12.728l-5.91-14.33l13.412-2.759L355.566,1025.815z"/>
			</g>
			<path fill="#B29E92" d="M411.635,1036.771c10.462-13.287,8.639-32.17-4.069-42.176c-12.709-10.006-31.491-7.345-39.934,7.434
				l13.987,10.334l-11.28,10.428l20.283,15.969l7.542-13.509L411.635,1036.771z"/>
			<path fill="#B29E92" d="M437.417,924.499c-16.174-0.239-29.486,13.274-27.227,30.145l17.388-0.275l-2.636,15.134l25.813,0.382
				l-2.203-15.315l17.697,0.98C466.499,938.641,453.591,924.739,437.417,924.499z"/>
			<path fill="#B29E92" d="M329.646,967.645l14.127-10.702c-10.749-13.057-29.585-15.306-42.073-5.025
				c-12.488,10.281-13.897,29.198-1.259,40.601l13.082-11.459l7.781,13.247l19.93-16.409L329.646,967.645z"/>
			<path fill="#B29E92" d="M377.335,915.628c-9.329-5.137-21.245-1.395-25.145,9.112l10.193,5.214l-6.21,7.984l14.89,8.199
				l3.451-9.585l9.986,6.038C389.872,932.837,386.664,920.763,377.335,915.628z"/>
			<path fill="#B29E92" d="M464.656,900.864l10.195,5.214l-6.21,7.984l14.89,8.199l3.451-9.585l9.986,6.038
				c5.372-9.754,2.163-21.825-7.166-26.962c-1.13-0.621-2.297-1.107-3.483-1.473h-10.563
				C470.882,891.789,466.683,895.404,464.656,900.864z"/>
			<path fill="#B29E92" d="M357.163,1027.413l-11.98,6.832l-4.97-14.995c-14.105,5.318-21.415,20.566-16.327,34.055
				c5.087,13.489,20.645,20.114,33.895,12.728l-5.91-14.33l13.412-2.759L357.163,1027.413z"/>
			<path fill="none" d="M486.316,888.682c1.185,0.366,2.355,0.852,3.483,1.473c9.329,5.137,12.538,17.208,7.166,26.962l-9.986-6.038
				l-3.451,9.585l-14.89-8.199l6.21-7.984l-10.195-5.214c2.028-5.462,6.228-9.075,11.098-10.585H301.177l3.338,10.068l11.98-6.832
				l8.118,21.529l-13.412,2.759l5.91,14.331c-13.251,7.386-28.809,0.763-33.895-12.728c-3.953-10.484-0.397-22.008,7.997-29.13
				h-12.422v160.553c3.191,0.199,6.397,1.081,9.387,2.725c11.39,6.273,15.308,21.011,8.749,32.92l-12.193-7.373l-4.215,11.702
				l-1.73-0.953v21.793c123.804,0,224.599-98.473,228.355-221.368h-20.828V888.682z M311.926,979.461l-13.082,11.459
				c-12.636-11.402-11.228-30.321,1.259-40.602c12.488-10.281,31.324-8.03,42.073,5.025l-14.127,10.702l11.589,10.253l-19.93,16.409
				L311.926,979.461z M356.182,1064.434c-13.251,7.386-28.809,0.762-33.895-12.728c-5.088-13.489,2.223-28.737,16.327-34.055
				l4.97,14.995l11.98-6.832l8.118,21.53l-13.412,2.759L356.182,1064.434z M382.903,940.992l-9.986-6.038l-3.451,9.585l-14.89-8.199
				l6.21-7.984l-10.193-5.214c3.9-10.507,15.816-14.249,25.145-9.112C385.066,919.166,388.274,931.239,382.903,940.992z
				 M449.158,968.288l-25.813-0.382l2.636-15.134l-17.388,0.275c-2.26-16.87,11.055-30.384,27.227-30.145
				c16.174,0.239,29.082,14.142,28.831,31.051l-17.697-0.98L449.158,968.288z"/>
			<path fill="#C6B3A7" d="M410.037,1036.771c10.462-13.287,8.639-32.17-4.069-42.176c-12.709-10.006-31.492-7.345-39.934,7.434
				l13.987,10.334l-11.28,10.428l20.284,15.969l7.542-13.509L410.037,1036.771z"/>
			<path fill="#C6B3A7" d="M435.82,922.901c-16.174-0.239-29.486,13.274-27.227,30.145l17.388-0.275l-2.636,15.134l25.813,0.382
				l-2.203-15.315l17.697,0.98C464.902,937.043,451.993,923.142,435.82,922.901z"/>
			<path fill="#C6B3A7" d="M326.451,967.645l14.127-10.702c-10.749-13.057-29.585-15.306-42.073-5.025
				c-12.487,10.281-13.897,29.198-1.259,40.601l13.082-11.459l7.781,13.247l19.93-16.409L326.451,967.645z"/>
			<path fill="#C6B3A7" d="M375.737,914.03c-9.329-5.137-21.245-1.395-25.145,9.112l10.193,5.214l-6.21,7.984l14.89,8.199
				l3.451-9.585l9.986,6.038C388.274,931.239,385.066,919.166,375.737,914.03z"/>
			<path fill="#C6B3A7" d="M463.058,900.864l10.195,5.214l-6.21,7.984l14.89,8.199l3.451-9.585l9.986,6.038
				c5.372-9.754,2.163-21.825-7.166-26.962c-1.13-0.621-2.297-1.107-3.483-1.473h-10.563
				C469.284,891.789,465.085,895.404,463.058,900.864z"/>
			<path fill="#C6B3A7" d="M355.566,1025.815l-11.98,6.832l-4.97-14.995c-14.105,5.319-21.415,20.566-16.327,34.055
				c5.088,13.489,20.645,20.114,33.895,12.728l-5.91-14.33l13.412-2.759L355.566,1025.815z"/>
			<path fill="#B29E92" d="M290.339,1092.348l10.783-6.149l4.475,13.498c12.695-4.787,19.275-18.511,14.696-30.654
				s-18.581-18.104-30.509-11.456l5.321,12.899l-12.072,2.484L290.339,1092.348z"/>
			<path fill="#C6B3A7" d="M290.179,1090.591l10.783-6.149l4.475,13.498c12.695-4.787,19.275-18.511,14.696-30.654
				c-4.579-12.142-18.581-18.104-30.509-11.456l5.321,12.899l-12.072,2.484L290.179,1090.591z"/>
			<path fill="#B29E92" d="M308.245,898.257c-10.636,0.104-19.17,9.201-17.414,20.254l11.427-0.461l-1.49,9.992l16.974-0.165
				l-1.695-10.032l11.649,0.36C327.59,907.084,318.881,898.153,308.245,898.257z"/>
			<path fill="#C6B3A7" d="M306.072,896.052c-10.636,0.104-19.17,9.201-17.414,20.254l11.427-0.461l-1.49,9.992l16.974-0.165
				l-1.695-10.032l11.649,0.36C325.416,904.879,316.707,895.949,306.072,896.052z"/>
		</g>
		<g>
			<g>
				<path fill="#895E25" d="M117.646,1046.632l-13.562,13.562c44.501,42.744,104.933,69.029,171.512,69.029v-19.173
					C214.311,1110.049,158.674,1085.909,117.646,1046.632z"/>
				<path fill="#F9E3A5" d="M117.646,1046.632c41.028,39.277,96.666,63.417,157.951,63.417V888.682L117.646,1046.632z"/>
			</g>
			<path fill="none" d="M207.69,978.123c12.588,0,23.825,5.773,31.218,14.812c10.427-5.803,17.487-16.922,17.487-29.701
				c0-13.372-7.727-24.933-18.954-30.48c0.012-0.366,0.027-0.73,0.027-1.097c0-1.534-0.137-3.033-0.334-4.512l-66.716,66.716
				c1.328,0.636,2.691,1.207,4.105,1.668C181.799,985.016,193.936,978.123,207.69,978.123z"/>
			<path fill="none" d="M243.152,921.129c0.387,2.245,0.601,4.547,0.601,6.903c0,0.436-0.019,0.87-0.034,1.302
				c13.32,6.579,22.485,20.296,22.485,36.156c0,15.661-8.937,29.226-21.983,35.9c2.42,5.178,3.781,10.951,3.781,17.043
				c0,0.436-0.019,0.87-0.034,1.302c13.32,6.579,22.485,20.294,22.485,36.156c0,22.263-18.048,40.311-40.311,40.311
				c-8.187,0-15.797-2.446-22.156-6.64c-4.029,2.657-8.565,4.606-13.428,5.684c25.185,9.561,52.498,14.802,81.039,14.802V888.682
				L243.152,921.129z"/>
			<path fill="none" d="M167.419,1020.036c-0.021-0.532-0.04-1.064-0.04-1.603c0-5.047,0.937-9.874,2.63-14.327
				c-2.435-0.728-4.759-1.707-6.977-2.859l-45.386,45.386c9.58,9.171,19.965,17.503,31.024,24.91
				c-2.029-4.812-3.151-10.099-3.151-15.65C145.519,1040.266,154.419,1026.725,167.419,1020.036z"/>
			<path fill="none" d="M226.663,1087.619c18.767,0,33.981-15.214,33.981-33.981c0-13.372-7.727-24.933-18.954-30.48
				c0.012-0.366,0.027-0.73,0.027-1.097c0-6.507-1.861-12.565-5.033-17.732c-3.437,0.952-7.053,1.473-10.791,1.473
				c-8.187,0-15.797-2.447-22.156-6.64c-6.359,4.193-13.971,6.64-22.156,6.64c-1.21,0-2.403-0.062-3.586-0.168
				c-2.695,4.87-4.24,10.465-4.24,16.427c0,0.454,0.016,0.903,0.034,1.35c-10.96,5.638-18.462,17.053-18.462,30.227
				c0,18.767,15.214,33.981,33.981,33.981c6.9,0,13.317-2.062,18.678-5.597C213.346,1085.556,219.762,1087.619,226.663,1087.619z"/>
			<path fill="none" d="M203.737,991.618c5.36,3.534,11.777,5.596,18.678,5.596c2.584,0,5.089-0.314,7.506-0.859
				c-5.955-5.144-13.697-8.278-22.185-8.278c-8.937,0-17.041,3.475-23.107,9.115c0.146,0.002,0.284,0.022,0.43,0.022
				C191.96,997.216,198.377,995.152,203.737,991.618z"/>
			<path fill="#0B6D38" d="M233.337,1097.803c22.263,0,40.311-18.048,40.311-40.311c0-15.862-9.164-29.577-22.485-36.156
				c0.015-0.433,0.034-0.866,0.034-1.302c0-6.092-1.36-11.867-3.781-17.043c13.046-6.674,21.983-20.239,21.983-35.899
				c0-15.862-9.164-29.577-22.485-36.156c0.015-0.433,0.034-0.866,0.034-1.302c0-2.355-0.214-4.659-0.601-6.903l-6.017,6.017
				c0.196,1.479,0.334,2.978,0.334,4.512c0,0.369-0.016,0.733-0.027,1.097c11.229,5.546,18.954,17.108,18.954,30.48
				c0,12.779-7.062,23.898-17.487,29.701c-7.392-9.04-18.63-14.812-31.218-14.812c-13.754,0-25.892,6.893-33.166,17.407
				c-1.415-0.462-2.779-1.033-4.105-1.668l-7.386,7.386c2.218,1.154,4.542,2.129,6.977,2.859c-1.694,4.453-2.63,9.28-2.63,14.326
				c0,0.537,0.019,1.071,0.04,1.603c-13.003,6.69-21.9,20.23-21.9,35.858c0,5.55,1.123,10.837,3.15,15.65
				c14.247,9.54,29.619,17.529,45.887,23.706c4.863-1.077,9.399-3.026,13.43-5.684
				C217.54,1095.355,225.152,1097.803,233.337,1097.803z M210.931,989.676c8.488,0,16.229,3.133,22.185,8.278
				c-2.417,0.547-4.924,0.859-7.506,0.859c-6.9,0-13.317-2.062-18.678-5.596c-5.36,3.534-11.777,5.596-18.678,5.596
				c-0.146,0-0.286-0.019-0.43-0.022C193.89,993.153,201.996,989.676,210.931,989.676z M158.522,1055.236
				c0-13.174,7.502-24.589,18.462-30.227c-0.018-0.449-0.034-0.898-0.034-1.35c0-5.962,1.545-11.556,4.24-16.427
				c1.182,0.104,2.376,0.168,3.586,0.168c8.187,0,15.797-2.447,22.156-6.64c6.359,4.193,13.971,6.64,22.156,6.64
				c3.739,0,7.356-0.519,10.791-1.473c3.171,5.167,5.033,11.225,5.033,17.732c0,0.369-0.016,0.733-0.027,1.097
				c11.229,5.546,18.954,17.108,18.954,30.48c0,18.767-15.214,33.981-33.981,33.981c-6.9,0-13.317-2.062-18.678-5.596
				c-5.36,3.534-11.777,5.596-18.678,5.596C173.736,1089.217,158.522,1074.003,158.522,1055.236z"/>
			<path fill="#118C45" d="M230.141,1096.205c22.263,0,40.311-18.048,40.311-40.311c0-15.862-9.164-29.577-22.485-36.156
				c0.015-0.433,0.034-0.866,0.034-1.302c0-6.092-1.36-11.867-3.781-17.043c13.046-6.674,21.983-20.239,21.983-35.899
				c0-15.862-9.164-29.577-22.485-36.156c0.015-0.433,0.034-0.866,0.034-1.302c0-2.355-0.214-4.659-0.601-6.903l-6.017,6.017
				c0.196,1.479,0.334,2.978,0.334,4.512c0,0.369-0.016,0.733-0.027,1.097c11.229,5.546,18.954,17.108,18.954,30.48
				c0,12.779-7.062,23.898-17.487,29.7c-7.392-9.04-18.63-14.812-31.218-14.812c-13.754,0-25.892,6.893-33.166,17.407
				c-1.415-0.462-2.779-1.033-4.105-1.668l-7.386,7.386c2.218,1.154,4.542,2.13,6.977,2.859c-1.693,4.453-2.63,9.28-2.63,14.326
				c0,0.537,0.019,1.07,0.04,1.603c-13.003,6.69-21.9,20.23-21.9,35.858c0,5.55,1.123,10.837,3.151,15.65
				c14.247,9.54,29.619,17.529,45.887,23.706c4.863-1.077,9.399-3.026,13.428-5.684
				C214.345,1093.757,221.956,1096.205,230.141,1096.205z M207.736,988.078c8.488,0,16.229,3.133,22.185,8.278
				c-2.417,0.547-4.924,0.859-7.506,0.859c-6.9,0-13.317-2.062-18.678-5.596c-5.36,3.534-11.777,5.596-18.678,5.596
				c-0.146,0-0.286-0.019-0.43-0.022C190.695,991.555,198.8,988.078,207.736,988.078z M155.327,1053.638
				c0-13.174,7.502-24.589,18.462-30.227c-0.018-0.449-0.034-0.898-0.034-1.35c0-5.962,1.545-11.556,4.24-16.427
				c1.182,0.104,2.376,0.168,3.586,0.168c8.187,0,15.797-2.447,22.156-6.64c6.359,4.193,13.971,6.64,22.156,6.64
				c3.739,0,7.356-0.519,10.791-1.473c3.171,5.167,5.033,11.225,5.033,17.732c0,0.369-0.016,0.733-0.027,1.097
				c11.229,5.546,18.954,17.108,18.954,30.48c0,18.767-15.214,33.981-33.981,33.981c-6.9,0-13.317-2.062-18.678-5.596
				c-5.36,3.534-11.777,5.596-18.678,5.596C170.541,1087.619,155.327,1072.405,155.327,1053.638z"/>
		</g>
		<g>
			<g>
				<path fill="#895E25" d="M47.24,888.682H28.055c1.9,67.355,30.701,127.973,76.03,171.512l13.562-13.562
					C75.791,1006.564,49.138,950.742,47.24,888.682z"/>
				<path fill="#F9E3A5" d="M47.24,888.682c1.898,62.059,28.55,117.882,70.406,157.951l157.951-157.951H47.24z"/>
			</g>
		</g>
		<g>
			<g>
				<path fill="#895E25" d="M185.569,668.339l-7.343-17.714c-30.796,13.186-58.386,32.424-81.256,56.236l13.556,13.556
					C131.631,698.37,157.114,680.553,185.569,668.339z"/>
				<path fill="#F9E3A5" d="M185.569,668.339c-28.456,12.215-53.938,30.031-75.043,52.078l165.069,165.068L185.569,668.339z"/>
			</g>
		</g>
		<g>
			<g>
				<path fill="#895E25" d="M276.856,648.151l-0.046-19.176c-33.498,0.467-66.335,7.75-96.546,21.061l7.374,17.698
					C215.545,655.383,245.892,648.612,276.856,648.151z"/>
				<path fill="#F9E3A5" d="M276.856,648.151c-30.964,0.461-61.31,7.231-89.219,19.583l89.786,215.487L276.856,648.151z"/>
			</g>
		</g>
		<g>
			<g>
				<path fill="#895E25" d="M185.569,668.339l-7.343-17.714c-30.796,13.186-58.386,32.424-81.256,56.236l13.556,13.556
					C131.631,698.37,157.114,680.553,185.569,668.339z"/>
				<path fill="#F9E3A5" d="M185.569,668.339c-28.456,12.215-53.938,30.031-75.043,52.078l165.069,165.068L185.569,668.339z"/>
			</g>
		</g>
		
			<line fill="none" stroke="#FFFFFF" stroke-width="2" stroke-miterlimit="10" x1="279.973" y1="884.305" x2="102.487" y2="1061.791"/>
		
			<line fill="none" stroke="#FFFFFF" stroke-width="2" stroke-miterlimit="10" x1="275.527" y1="880.123" x2="177.924" y2="648.874"/>
		<g>
			<path fill="#895E25" d="M321.589,582.503l-3.054,18.928c124.573,20.099,209.266,137.378,189.167,261.952
				c-0.379,2.349-0.804,4.679-1.251,7l18.941,3.057c0.443-2.321,0.859-4.652,1.238-7.001
				C548.417,731.409,456.615,604.287,321.589,582.503z"/>
			<path fill="#F9E3A5" d="M318.536,601.43l-18.9,117.14c3.231-0.305,6.546-0.238,9.9,0.303
				c14.353,2.315,25.597,12.179,30.362,24.882c0.733-0.102,1.478-0.158,2.221-0.226c5.201-8.65,15.288-13.734,25.862-12.028
				c6.786,1.094,12.495,4.787,16.311,9.887c4.951,5.525,7.465,13.15,6.191,21.047c-0.415,2.577-1.207,5-2.307,7.225
				c3.988,8.274,5.583,17.802,4.008,27.557c-0.462,2.866-1.191,5.621-2.132,8.26c8.147,5.158,14.108,13.192,16.719,22.45
				c8.283-11.456,22.563-17.935,37.47-15.529c10.095,1.628,18.632,7.038,24.42,14.543c7.249,8.347,10.886,19.726,8.987,31.493
				c-0.393,2.434-1.023,4.768-1.833,7.003l30.636,4.943c0.447-2.32,0.873-4.649,1.251-7
				C527.802,738.808,443.108,621.528,318.536,601.43z M389.888,680.784c-3.886,24.084-26.561,40.458-50.646,36.572
				c-11.597-1.871-21.397-8.101-28.013-16.744c-2.825-3.326-5.165-7.054-6.909-11.072l7.573-46.944
				c9.701-10.855,24.554-16.699,39.993-14.209c11.512,1.858,21.255,8.014,27.872,16.559
				C387.95,654.476,392.046,667.409,389.888,680.784z M478.445,748.691c-3.344,20.724-22.854,34.813-43.578,31.471
				c-9.936-1.603-18.34-6.93-24.035-14.317c-7.147-8.216-10.732-19.424-8.863-31.013c3.344-20.724,22.854-34.813,43.578-31.471
				c9.936,1.603,18.34,6.93,24.036,14.317C476.731,725.893,480.317,737.1,478.445,748.691z"/>
			<path fill="#C82027" d="M404.344,855.427l70.935,11.445c0.192-0.471,0.364-0.954,0.538-1.435l-70.797-11.423
				C404.811,854.498,404.572,854.958,404.344,855.427z"/>
			<path fill="#C82027" d="M468.662,826.944c6.287,8.152,9.329,18.776,7.56,29.742c-0.477,2.957-1.289,5.776-2.371,8.436
				l-68.832-11.106l0,0l70.797,11.423c0.81-2.235,1.441-4.57,1.833-7.003C479.55,846.669,475.913,835.29,468.662,826.944z"/>
			<path fill="#C82027" d="M469.584,717.679c6.183,8.021,9.175,18.474,7.434,29.261c-3.344,20.724-22.854,34.813-43.578,31.471
				c-9.134-1.473-16.976-6.091-22.608-12.564c5.696,7.388,14.099,12.713,24.035,14.317c20.724,3.344,40.234-10.746,43.578-31.471
				C480.317,737.1,476.731,725.893,469.584,717.679z"/>
			<path fill="#C82027" d="M389.056,760.687c-0.384,2.373-1.103,4.603-2.069,6.678c0.418,0.754,0.815,1.519,1.189,2.297
				c1.099-2.224,1.89-4.648,2.307-7.225c1.273-7.896-1.238-15.522-6.191-21.047C388.28,746.722,390.2,753.593,389.056,760.687z"/>
			<path fill="#C82027" d="M388.461,679.031c-3.886,24.084-26.561,40.457-50.646,36.572c-10.792-1.741-20.023-7.267-26.586-14.994
				c6.618,8.644,16.418,14.873,28.013,16.744c24.084,3.885,46.759-12.488,50.646-36.572c2.159-13.375-1.94-26.308-10.128-35.838
				C386.988,654.277,390.488,666.46,388.461,679.031z"/>
			<path fill="#E33225" d="M445.671,814.152c9.292,1.499,17.268,6.2,22.993,12.79c-5.788-7.505-14.325-12.913-24.42-14.542
				c-14.907-2.404-29.189,4.072-37.47,15.529c0.262,0.928,0.489,1.869,0.681,2.822C415.605,818.632,430.306,811.674,445.671,814.152
				z"/>
			<path fill="#E33225" d="M407.453,830.75c0.91,4.48,1.056,9.194,0.284,13.972c-0.529,3.274-1.459,6.381-2.719,9.292l68.832,11.106
				c1.084-2.66,1.895-5.48,2.371-8.436c1.769-10.965-1.271-21.59-7.56-29.742c-5.724-6.591-13.7-11.292-22.993-12.79
				C430.306,811.674,415.605,818.632,407.453,830.75z"/>
			<path fill="#E33225" d="M403.399,736.583c3.344-20.724,22.854-34.813,43.578-31.471c9.134,1.473,16.976,6.091,22.608,12.566
				c-5.696-7.388-14.1-12.713-24.036-14.317c-20.724-3.344-40.234,10.746-43.578,31.471c-1.869,11.59,1.716,22.798,8.863,31.014
				C404.648,757.824,401.657,747.371,403.399,736.583z"/>
			<path fill="#E33225" d="M477.019,746.939c1.74-10.788-1.251-21.24-7.434-29.261c-5.632-6.475-13.474-11.091-22.608-12.566
				c-20.724-3.344-40.234,10.746-43.578,31.471c-1.74,10.788,1.251,21.24,7.434,29.262c5.632,6.475,13.474,11.091,22.608,12.564
				C454.165,781.753,473.674,767.664,477.019,746.939z"/>
			<path fill="#E33225" d="M369.408,733.255c5.981,0.965,11.131,3.95,14.883,8.136c-3.815-5.1-9.526-8.793-16.311-9.887
				c-10.575-1.707-20.661,3.378-25.862,12.028c0.896-0.08,1.796-0.131,2.703-0.159C350.291,735.9,359.64,731.678,369.408,733.255z"
				/>
			<path fill="#E33225" d="M344.821,743.371c2.919-0.091,5.881,0.062,8.873,0.544c14.677,2.368,26.622,11.372,33.294,23.449
				c0.965-2.077,1.686-4.306,2.069-6.678c1.144-7.093-0.775-13.964-4.765-19.296c-3.751-4.186-8.901-7.171-14.883-8.136
				C359.64,731.678,350.291,735.9,344.821,743.371z"/>
			<path fill="#E33225" d="M313.321,644.347c9.701-10.855,24.554-16.699,39.993-14.209c10.709,1.729,19.888,7.177,26.446,14.808
				c-6.618-8.544-16.36-14.701-27.872-16.559c-15.44-2.49-30.291,3.354-39.993,14.209l-7.573,46.944
				c1.745,4.02,4.084,7.747,6.909,11.072c-2.193-2.865-4.039-5.996-5.482-9.322L313.321,644.347z"/>
			<path fill="#E33225" d="M388.461,679.031c2.029-12.572-1.472-24.754-8.699-34.086c-6.557-7.631-15.736-13.079-26.446-14.808
				c-15.44-2.49-30.291,3.354-39.993,14.209l-7.573,46.944c1.442,3.325,3.288,6.455,5.482,9.322
				c6.564,7.725,15.794,13.251,26.586,14.994C361.901,719.491,384.575,703.116,388.461,679.031z"/>
		</g>
		<path fill="#D3A72A" d="M161.353,707.911c-3.803-2.521-8.615-4.032-13.854-4.032c-5.239,0-10.052,1.51-13.854,4.032h-0.526
			l0.045,0.326l5.782,25.267h17.951l4.945-25.26l0.037-0.333C161.878,707.911,161.353,707.911,161.353,707.911z"/>
		<path fill="#D3A72A" d="M171.049,723.009c3.928,2.324,8.81,3.586,14.042,3.318c5.232-0.269,9.96-2.023,13.63-4.735l0.525-0.027
			l-0.062-0.323l-7.067-24.937l-17.929,0.919l-3.646,25.481l-0.019,0.333L171.049,723.009z"/>
		<path fill="#D3A72A" d="M201.172,749.013c-1.683-4.242-4.771-8.23-9.071-11.221c-4.301-2.991-9.114-4.499-13.675-4.601l-0.431-0.3
			l-0.149,0.294l-9.682,24.042l14.736,10.251l18.484-17.914l0.219-0.251L201.172,749.013z"/>
		<path fill="#D3A72A" d="M223.108,771.033c-3.76-2.587-8.544-4.181-13.782-4.271c-5.238-0.091-10.076,1.335-13.923,3.791
			l-0.526-0.009l0.04,0.326l5.343,25.362l17.949,0.31l5.381-25.171l0.043-0.33L223.108,771.033z"/>
		<path fill="#D3A72A" d="M247.049,832.599c-0.932-4.961-3.445-9.943-7.484-14.1c-4.039-4.157-8.949-6.809-13.882-7.881
			l-0.406-0.418l-0.223,0.287l-15.586,24.069l13.841,14.24l23.852-15.556l0.291-0.227L247.049,832.599z"/>
		<path fill="#EEC11B" d="M159.755,706.314c-3.803-2.521-8.615-4.032-13.854-4.032c-5.24,0-10.052,1.51-13.854,4.032h-0.526
			l0.045,0.326l5.782,25.267h17.951l4.945-25.26l0.037-0.333C160.28,706.314,159.755,706.314,159.755,706.314z"/>
		<path fill="#EEC11B" d="M169.451,721.411c3.928,2.324,8.81,3.586,14.042,3.318c5.232-0.269,9.96-2.023,13.63-4.735l0.525-0.027
			l-0.062-0.323l-7.067-24.937l-17.928,0.919l-3.646,25.481l-0.019,0.333L169.451,721.411z"/>
		<path fill="#EEC11B" d="M199.575,747.415c-1.683-4.242-4.771-8.23-9.071-11.221c-4.301-2.991-9.114-4.499-13.675-4.601l-0.431-0.3
			l-0.149,0.294l-9.682,24.042l14.736,10.251l18.484-17.914l0.219-0.251L199.575,747.415z"/>
		<path fill="#EEC11B" d="M221.511,769.435c-3.76-2.587-8.544-4.181-13.782-4.271c-5.238-0.091-10.075,1.335-13.923,3.791
			l-0.526-0.009l0.04,0.326l5.343,25.362l17.949,0.309l5.381-25.171l0.043-0.33L221.511,769.435z"/>
		<path fill="#EEC11B" d="M245.451,831.001c-0.932-4.961-3.445-9.943-7.484-14.1c-4.039-4.157-8.949-6.809-13.882-7.881
			l-0.406-0.418l-0.223,0.287l-15.586,24.069l13.841,14.24l23.852-15.556l0.291-0.227L245.451,831.001z"/>
		<line fill="none" stroke="#FFFFFF" stroke-width="2" stroke-miterlimit="10" x1="275.911" y1="883.076" x2="98.424" y2="705.59"/>
		<circle fill="none" stroke="#000000" stroke-width="7" stroke-miterlimit="10" cx="70.93" cy="913.344" r="13.44"/>
		<circle fill="none" stroke="#000000" stroke-width="7" stroke-miterlimit="10" cx="110.527" cy="1004.61" r="13.44"/>
		<circle fill="none" stroke="#000000" stroke-width="7" stroke-miterlimit="10" cx="96.866" cy="949.702" r="10.189"/>
		<circle fill="none" stroke="#000000" stroke-width="7" stroke-miterlimit="10" cx="226.725" cy="905.763" r="10.189"/>
		<circle fill="none" stroke="#000000" stroke-width="7" stroke-miterlimit="10" cx="158.203" cy="926.496" r="13.44"/>
		<circle fill="none" stroke="#000000" stroke-width="7" stroke-miterlimit="10" cx="147.035" cy="975.188" r="13.44"/>
		<circle fill="none" stroke="#000000" stroke-width="7" stroke-miterlimit="10" cx="196.621" cy="934.108" r="13.44"/>
		<circle fill="none" stroke="#000000" stroke-width="7" stroke-miterlimit="10" cx="180.261" cy="890.281" r="13.44"/>
		<circle fill="none" stroke="#000000" stroke-width="7" stroke-miterlimit="10" cx="120.896" cy="916.616" r="10.85"/>
		<line fill="none" stroke="#FFFFFF" stroke-width="2" stroke-miterlimit="10" x1="526.284" y1="886.366" x2="27.79" y2="886.366"/>
		<g>
			<g>
				<path fill="#895E25" d="M47.121,878.378c0-61.285,24.133-116.929,63.408-157.96l-13.556-13.556
					C54.23,751.365,27.95,811.801,27.95,878.379c0,2.379,0.042,4.747,0.109,7.108h19.185
					C47.168,883.125,47.121,880.757,47.121,878.378z"/>
				<path fill="#F9E3A5" d="M110.527,720.417c-39.275,41.031-63.408,96.676-63.408,157.96c0,2.379,0.048,4.747,0.122,7.108h228.355
					L110.527,720.417z"/>
			</g>
		</g>
		<path fill="#C02026" d="M129.691,751.405c-18.333-9.062-40.542-1.548-49.605,16.784s-1.548,40.542,16.784,49.605
			c18.333,9.062,40.542,1.548,49.605-16.784S148.026,760.467,129.691,751.405z M91.864,799.206
			c-2.461-3.715-4.139-8.223-4.682-13.195c-0.48-4.426-0.003-8.692,1.24-12.508l20.33,11.221L91.864,799.206z M115.484,778.44
			l-3.66-20.963c4.395,0.04,9.069,1.117,13.549,3.332c3.992,1.973,7.359,4.616,9.955,7.62L115.484,778.44z M129.342,808.135
			c-3.721,2.444-7.776,3.901-11.809,4.427l-0.056-24.412l21.345,9.606C136.722,801.766,133.52,805.389,129.342,808.135z"/>
		<path fill="#C02026" d="M150.312,819.011c-16.452,0-29.788,13.336-29.788,29.788c0,16.452,13.336,29.788,29.788,29.788
			S180.1,865.25,180.1,848.799C180.101,832.347,166.762,819.011,150.312,819.011z M140.073,866.967
			c-3.098-1.8-5.918-4.454-8.08-7.847c-1.925-3.02-3.101-6.268-3.565-9.463l18.66,0.843L140.073,866.967z M149.704,843.57
			l-10.113-13.812c3.185-1.539,6.937-2.428,10.959-2.428c3.582,0,6.952,0.705,9.896,1.946L149.704,843.57z M170.282,860.043
			c-1.812,3.088-4.218,5.586-6.937,7.402l-8.742-17.585l18.818-0.684C173.333,852.82,172.318,856.575,170.282,860.043z"/>
		<path fill="#C02026" d="M69.666,826.428c-12.353,7.224-16.515,23.092-9.291,35.447c7.224,12.353,23.092,16.515,35.447,9.291
			c12.355-7.224,16.515-23.092,9.291-35.447C97.89,823.365,82.02,819.207,69.666,826.428z M83.033,866.936
			c-3.117,0.008-6.399-0.748-9.511-2.346c-2.773-1.424-5.08-3.344-6.832-5.541l14.383-7.559L83.033,866.936z M79.992,845.14
			l-13.657-5.932c1.716-2.553,4.143-4.868,7.163-6.634c2.689-1.572,5.529-2.523,8.286-2.884L79.992,845.14z M102.679,848.475
			c-0.005,3.116-0.714,6.046-1.961,8.605l-14.285-9.366l13.831-8.775C101.798,841.711,102.683,844.977,102.679,848.475z"/>
		<path fill="#C02026" d="M204.565,838.151c-12.611,2.541-20.774,14.823-18.233,27.433c2.541,12.611,14.823,20.774,27.433,18.233
			c12.611-2.541,20.774-14.823,18.233-27.433C229.457,843.774,217.174,835.611,204.565,838.151z M204.122,876.492
			c-2.652-0.903-5.224-2.501-7.404-4.766c-1.943-2.018-3.345-4.325-4.194-6.702l14.434-2.233L204.122,876.492z M207.891,857.071
			l-9.884-9.026c2.203-1.671,4.943-2.932,8.025-3.553c2.745-0.553,5.437-0.534,7.887-0.037L207.891,857.071z M226.209,866.521
			c-0.913,2.648-2.37,4.932-4.175,6.745l-9.417-12.129l14.319-3.429C227.433,860.512,227.233,863.547,226.209,866.521z"/>
		<path fill="#DC1F26" d="M128.094,749.807c-18.333-9.062-40.542-1.548-49.605,16.784c-9.062,18.333-1.548,40.542,16.784,49.605
			s40.542,1.548,49.605-16.784C153.94,781.079,146.428,758.87,128.094,749.807z M90.266,797.609
			c-2.461-3.715-4.139-8.223-4.682-13.195c-0.48-4.426-0.003-8.692,1.24-12.508l20.33,11.221L90.266,797.609z M113.887,776.842
			l-3.66-20.963c4.395,0.04,9.069,1.117,13.549,3.332c3.992,1.973,7.359,4.616,9.955,7.62L113.887,776.842z M127.744,806.537
			c-3.721,2.444-7.776,3.901-11.809,4.427l-0.056-24.412l21.345,9.606C135.124,800.168,131.922,803.792,127.744,806.537z"/>
		<path fill="#DC1F26" d="M148.714,817.412c-16.452,0-29.788,13.336-29.788,29.788c0,16.452,13.336,29.788,29.788,29.788
			s29.788-13.336,29.788-29.788C178.502,830.749,165.165,817.412,148.714,817.412z M138.476,865.369
			c-3.098-1.801-5.917-4.454-8.08-7.847c-1.925-3.02-3.101-6.268-3.565-9.463l18.66,0.843L138.476,865.369z M148.107,841.973
			l-10.113-13.812c3.185-1.539,6.937-2.428,10.959-2.428c3.582,0,6.952,0.705,9.896,1.946L148.107,841.973z M168.684,858.446
			c-1.812,3.088-4.218,5.586-6.937,7.402l-8.742-17.585l18.818-0.684C171.736,851.222,170.72,854.977,168.684,858.446z"/>
		<path fill="#DC1F26" d="M68.069,824.831c-12.353,7.224-16.515,23.092-9.291,35.447c7.224,12.353,23.092,16.515,35.447,9.291
			c12.355-7.224,16.515-23.092,9.291-35.447C96.293,821.768,80.422,817.609,68.069,824.831z M81.435,865.339
			c-3.117,0.008-6.399-0.748-9.511-2.346c-2.773-1.424-5.08-3.344-6.832-5.541l14.383-7.559L81.435,865.339z M78.394,843.542
			l-13.657-5.932c1.716-2.553,4.143-4.869,7.163-6.634c2.689-1.572,5.529-2.523,8.286-2.884L78.394,843.542z M101.081,846.877
			c-0.005,3.116-0.714,6.045-1.961,8.605l-14.286-9.366l13.831-8.775C100.2,840.113,101.085,843.38,101.081,846.877z"/>
		<path fill="#DC1F26" d="M202.967,836.554c-12.611,2.541-20.774,14.823-18.233,27.433c2.541,12.61,14.823,20.774,27.433,18.233
			c12.611-2.541,20.774-14.823,18.233-27.433C227.859,842.176,215.576,834.013,202.967,836.554z M202.524,874.894
			c-2.652-0.903-5.224-2.501-7.404-4.766c-1.943-2.018-3.345-4.325-4.194-6.702l14.434-2.233L202.524,874.894z M206.294,855.474
			l-9.884-9.026c2.203-1.671,4.943-2.932,8.025-3.553c2.745-0.553,5.437-0.534,7.887-0.037L206.294,855.474z M224.611,864.923
			c-0.913,2.648-2.37,4.932-4.175,6.745l-9.417-12.129l14.319-3.429C225.836,858.913,225.635,861.949,224.611,864.923z"/>
	</g>
	<path fill="#CEAE80" d="M203.875,57.104c0,15.876-10.081,28.746-22.518,28.746l0,0c-12.436,0-22.518-12.869-22.518-28.746v-249.881
		c0-15.876,10.081-19.164,22.518-19.164l0,0c12.436,0,22.518,3.288,22.518,19.164V57.104z"/>
	<path fill="#EFD9AB" d="M201.959,56.146c0,15.876-10.081,28.746-22.518,28.746l0,0c-12.436,0-22.518-12.869-22.518-28.746v-249.881
		c0-15.876,10.081-19.164,22.518-19.164l0,0c12.436,0,22.518,3.288,22.518,19.164V56.146z"/>
	<path fill="#EFD9AB" d="M109.916,50.914c3.799,15.414-4.514,23.811-16.588,26.787l0,0c-12.075,2.976-23.338-0.594-27.138-16.009
		l-4.766-19.335c-3.799-15.414,5.202-21.02,17.276-23.996l0,0c12.074-2.976,22.65-2.197,26.45,13.217L109.916,50.914z"/>
	<path fill="#EFD9AB" d="M107.999,8.576c3.799,15.414-4.514,23.811-16.588,26.787l0,0c-12.075,2.976-23.338-0.594-27.138-16.009
		L59.507,0.019c-3.799-15.414,5.202-21.02,17.276-23.996l0,0c12.074-2.976,22.65-2.197,26.45,13.217L107.999,8.576z"/>
	<path fill="#EFD9AB" d="M108.957-34.719c3.799,15.414-4.514,23.811-16.588,26.787l0,0C80.294-4.956,69.031-8.526,65.231-23.94
		l-4.766-19.335c-3.799-15.414,5.202-21.02,17.276-23.996l0,0c12.074-2.976,22.65-2.197,26.45,13.217L108.957-34.719z"/>
	<path fill="#EFD9AB" d="M109.916-66.967c3.799,15.414-4.514,23.811-16.588,26.787l0,0c-12.075,2.976-23.338-0.594-27.138-16.009
		l-4.766-19.335c-3.799-15.414,5.202-21.02,17.276-23.996l0,0c12.074-2.976,22.65-2.197,26.45,13.217L109.916-66.967z"/>
	<path fill="#EFD9AB" d="M108.957-108.346c3.799,15.414-4.514,23.811-16.588,26.787l0,0c-12.075,2.976-23.338-0.594-27.138-16.009
		l-4.766-19.335c-3.799-15.414,5.202-21.02,17.276-23.996l0,0c12.074-2.976,22.65-2.197,26.45,13.217L108.957-108.346z"/>
	<path fill="#EFD9AB" d="M107.999-149.726c3.799,15.414-4.514,23.811-16.588,26.787l0,0c-12.075,2.976-23.338-0.594-27.138-16.009
		l-4.766-19.335c-3.799-15.414,5.202-21.02,17.276-23.996l0,0c12.074-2.976,22.65-2.197,26.45,13.217L107.999-149.726z"/>
	<ellipse fill="#CEB997" cx="179.441" cy="-161.182" rx="17.235" ry="2.81"/>
	<ellipse fill="#CEB997" cx="179.441" cy="-188.294" rx="17.235" ry="2.81"/>
	
		<ellipse transform="matrix(0.1759 -0.9844 0.9844 0.1759 202.8213 -27.8411)" fill="#CEB997" cx="84.782" cy="-135.058" rx="2.81" ry="17.235"/>
	
		<ellipse transform="matrix(0.1759 -0.9844 0.9844 0.1759 160.4173 7.6542)" fill="#CEB997" cx="84.78" cy="-91.984" rx="2.81" ry="17.235"/>
	
		<ellipse transform="matrix(0.1759 -0.9844 0.9844 0.1759 124.4661 37.7476)" fill="#CEB997" cx="84.778" cy="-55.465" rx="2.81" ry="17.235"/>
	
		<ellipse transform="matrix(0.1759 -0.9844 0.9844 0.1759 86.6273 69.4211)" fill="#CEB997" cx="84.776" cy="-17.029" rx="2.81" ry="17.235"/>
	
		<ellipse transform="matrix(0.1759 -0.9844 0.9844 0.1759 43.2365 105.7421)" fill="#CEB997" cx="84.774" cy="27.047" rx="2.81" ry="17.235"/>
	<ellipse fill="#CEB997" cx="179.441" cy="-137.642" rx="17.235" ry="2.81"/>
	<ellipse fill="#CEB997" cx="179.441" cy="-114.102" rx="17.235" ry="2.81"/>
	<ellipse fill="#CEB997" cx="179.441" cy="-90.562" rx="17.235" ry="2.81"/>
	<ellipse fill="#CEB997" cx="179.441" cy="-67.023" rx="17.235" ry="2.81"/>
	<ellipse fill="#CEB997" cx="179.441" cy="-43.483" rx="17.235" ry="2.81"/>
	<ellipse fill="#CEB997" cx="179.441" cy="-19.943" rx="17.235" ry="2.81"/>
	<ellipse fill="#CEB997" cx="179.441" cy="3.597" rx="17.235" ry="2.81"/>
	<ellipse fill="#CEB997" cx="179.441" cy="27.137" rx="17.235" ry="2.81"/>
	<ellipse fill="#CEB997" cx="179.441" cy="50.676" rx="17.235" ry="2.81"/>
	<path opacity="0.3" d="M659.21,860.565c-0.297-34.995,2.252-69.715,2.293-104.978c0.057-49.103,0.006-99.284,0.006-147.77
		c0-19.995-12.697-24.136-28.36-24.136s-28.36,4.141-28.36,24.136v136.395c0.132,5.089,0.15,10.172,0,15.244
		c0,54.358,0,108.718,0,163.076c0,19.953,12.644,36.137,28.264,36.204c32.669,0.139,29.256-41.619,27.541-63.83
		C659.706,883.41,659.308,871.972,659.21,860.565z"/>
	<path fill="#EFD9AB" d="M656.329,857.202c-0.297-34.995,2.252-69.715,2.293-104.978c0.057-49.103,0.006-99.284,0.006-147.77
		c0-19.995-12.697-24.136-28.36-24.136c-15.663,0-28.36,4.141-28.36,24.136v136.395c0.132,5.089,0.15,10.172,0,15.244
		c0,54.358,0,108.718,0,163.076c0,19.953,12.644,36.137,28.264,36.204c32.669,0.139,29.256-41.619,27.541-63.83
		C656.825,880.047,656.427,868.609,656.329,857.202z"/>
	
		<ellipse transform="matrix(0.2033 -0.9791 0.9791 0.2033 -129.8409 1131.3375)" fill="#CEB997" cx="630.269" cy="645.454" rx="3.539" ry="21.706"/>
	
		<ellipse transform="matrix(0.1864 -0.9825 0.9825 0.1864 -87.8102 1116.583)" fill="#CEB997" cx="630.264" cy="611.309" rx="3.54" ry="21.707"/>
	
		<ellipse transform="matrix(0.158 -0.9874 0.9874 0.158 -135.9335 1190.7847)" fill="#CEB997" cx="630.272" cy="675.099" rx="3.539" ry="21.705"/>
	
		<ellipse transform="matrix(0.1865 -0.9825 0.9825 0.1865 -179.6576 1192.5211)" fill="#CEB997" cx="630.276" cy="704.747" rx="3.539" ry="21.705"/>
	
		<ellipse transform="matrix(0.1795 -0.9838 0.9838 0.1795 -205.339 1222.6068)" fill="#CEB997" cx="630.262" cy="734.4" rx="3.54" ry="21.707"/>
	
		<ellipse transform="matrix(0.1974 -0.9803 0.9803 0.1974 -243.1521 1231.0707)" fill="#CEB997" cx="630.263" cy="764.033" rx="3.539" ry="21.706"/>
	
		<ellipse transform="matrix(0.1743 -0.9847 0.9847 0.1743 -261.1316 1275.9684)" fill="#CEB997" cx="630.264" cy="793.691" rx="3.539" ry="21.706"/>
	
		<ellipse transform="matrix(0.1846 -0.9828 0.9828 0.1846 -295.2645 1290.7847)" fill="#CEB997" cx="630.271" cy="823.336" rx="3.539" ry="21.706"/>
	
		<ellipse transform="matrix(0.1842 -0.9829 0.9829 0.1842 -324.2207 1315.3499)" fill="#CEB997" cx="630.265" cy="852.988" rx="3.54" ry="21.707"/>
	
		<ellipse transform="matrix(0.1838 -0.983 0.983 0.1838 -353.1831 1339.9393)" fill="#CEB997" cx="630.259" cy="882.64" rx="3.54" ry="21.707"/>
	
		<ellipse transform="matrix(0.1838 -0.983 0.983 0.1838 -382.3259 1364.1448)" fill="#CEB997" cx="630.263" cy="912.292" rx="3.54" ry="21.707"/>
	<path opacity="0.3" d="M731.634,859.025c-2.58-34.901-2.302-69.713-4.563-104.903c-3.148-49.001-2.767-42.395-5.931-90.779
		c-1.305-19.952-14.245-23.256-29.875-22.234c-15.63,1.022-28.03,5.983-26.724,25.935l5.194,79.427
		c0.464,5.069,0.813,10.14,0.995,15.211c3.547,54.243,7.094,108.486,10.642,162.729c1.302,19.911,14.976,35.235,30.566,34.282
		c32.609-1.993,26.477-43.439,23.317-65.491C733.619,881.79,732.475,870.403,731.634,859.025z"/>
	<path fill="#EFD9AB" d="M728.753,854.427c-2.58-34.901-2.302-69.713-4.563-104.903c-3.148-49.002-2.767-42.395-5.931-90.779
		c-1.304-19.952-14.245-23.256-29.875-22.234c-15.63,1.022-28.03,5.983-26.724,25.935l5.194,79.427
		c0.464,5.069,0.813,10.14,0.995,15.211c3.547,54.243,7.094,108.486,10.642,162.729c1.302,19.911,14.976,35.235,30.566,34.282
		c32.609-1.993,26.477-43.439,23.317-65.491C730.738,877.192,729.594,865.805,728.753,854.427z"/>
	
		<ellipse transform="matrix(0.0932 -0.9956 0.9956 0.0932 -45.0032 1299.4177)" fill="#CEB997" cx="690.868" cy="674.415" rx="3.539" ry="21.705"/>
	
		<ellipse transform="matrix(0.122 -0.9925 0.9925 0.122 -90.4624 1305.735)" fill="#CEB997" cx="692.802" cy="703.999" rx="3.539" ry="21.706"/>
	
		<ellipse transform="matrix(0.1149 -0.9934 0.9934 0.1149 -113.8206 1339.4329)" fill="#CEB997" cx="694.733" cy="733.589" rx="3.54" ry="21.707"/>
	
		<ellipse transform="matrix(0.133 -0.9911 0.9911 0.133 -152.3795 1352.1334)" fill="#CEB997" cx="696.661" cy="763.164" rx="3.539" ry="21.706"/>
	
		<ellipse transform="matrix(0.1097 -0.994 0.994 0.1097 -166.0132 1400.1718)" fill="#CEB997" cx="698.593" cy="792.757" rx="3.54" ry="21.707"/>
	
		<ellipse transform="matrix(0.1201 -0.9928 0.9928 0.1201 -199.9927 1419.0446)" fill="#CEB997" cx="700.53" cy="822.344" rx="3.54" ry="21.707"/>
	
		<ellipse transform="matrix(0.1197 -0.9928 0.9928 0.1197 -227.4141 1447.3527)" fill="#CEB997" cx="702.462" cy="851.916" rx="3.539" ry="21.706"/>
	
		<ellipse transform="matrix(0.1192 -0.9929 0.9929 0.1192 -254.7789 1475.8394)" fill="#CEB997" cx="704.418" cy="881.517" rx="3.54" ry="21.707"/>
	
		<ellipse transform="matrix(0.1193 -0.9929 0.9929 0.1193 -282.527 1503.6945)" fill="#CEB997" cx="706.328" cy="911.1" rx="3.54" ry="21.707"/>
	<path opacity="0.3" d="M869.168,866.971c0.545-34.992,3.929-69.64,4.817-104.892c1.237-49.088-2.001,83.393-0.835,34.919
		c0.481-19.989-12.113-24.435-27.771-24.811c-15.658-0.377-28.451,3.458-28.932,23.447l-0.48,19.953
		c0.009,5.09,1.499-56.073,1.228-51.005c-1.307,54.343-2.616,108.687-3.923,163.029c-0.48,19.947,11.771,36.43,27.385,36.873
		c32.657,0.925,30.248-40.903,29.069-63.149C869.114,889.822,868.99,878.378,869.168,866.971z"/>
	<path fill="#EFD9AB" d="M866.286,862.565c0.545-34.992,3.929-69.64,4.817-104.892c1.237-49.088-2.001,83.393-0.835,34.919
		c0.481-19.989-12.113-24.434-27.771-24.811c-15.658-0.377-28.451,3.458-28.932,23.447l-0.48,19.953
		c0.01,5.09,1.499-56.073,1.228-51.005c-1.307,54.343-2.616,108.687-3.923,163.029c-0.48,19.947,11.771,36.43,27.385,36.873
		c32.657,0.925,30.248-40.903,29.069-63.149C866.232,885.416,866.108,873.972,866.286,862.565z"/>
	
		<ellipse transform="matrix(0.1979 -0.9802 0.9802 0.1979 -107.4734 1465.5398)" fill="#CEB997" cx="841.763" cy="798.44" rx="3.539" ry="21.706"/>
	
		<ellipse transform="matrix(0.2082 -0.9781 0.9781 0.2082 -143.9989 1478.2997)" fill="#CEB997" cx="841.047" cy="828.088" rx="3.54" ry="21.707"/>
	
		<ellipse transform="matrix(0.2078 -0.9782 0.9782 0.2078 -173.2926 1501.4901)" fill="#CEB997" cx="840.333" cy="857.731" rx="3.54" ry="21.707"/>
	
		<ellipse transform="matrix(0.2074 -0.9783 0.9783 0.2074 -202.5947 1524.7036)" fill="#CEB997" cx="839.617" cy="887.376" rx="3.54" ry="21.707"/>
	
		<ellipse transform="matrix(0.2074 -0.9783 0.9783 0.2074 -232.1515 1547.5035)" fill="#CEB997" cx="838.908" cy="917.015" rx="3.54" ry="21.707"/>
	<path opacity="0.3" d="M801.271,859.392c-3.669-34.804-4.479-69.607-7.837-104.71c-4.677-48.879,1.659,17.072-3.015-31.19
		c-1.927-19.902-14.964-22.8-30.554-21.29c-15.59,1.51-27.829,6.856-25.902,26.758l1.924,19.866
		c0.622,5.052,1.129,10.109,1.469,15.173c5.24,54.106,10.479,108.211,15.72,162.317c1.924,19.86,16.069,34.75,31.622,33.311
		c32.531-3.01,25.108-44.245,21.26-66.188C803.966,882.083,802.467,870.738,801.271,859.392z"/>
	<path fill="#EFD9AB" d="M797.402,854.549c-3.669-34.804-4.479-69.607-7.837-104.71c-4.677-48.879,1.658,17.072-3.015-31.19
		c-1.927-19.902-14.964-22.8-30.554-21.29s-27.829,6.855-25.902,26.758l1.924,19.866c0.622,5.052,1.129,10.109,1.469,15.173
		c5.24,54.106,10.479,108.211,15.72,162.317c1.924,19.86,16.069,34.75,31.622,33.311c32.531-3.01,25.108-44.245,21.26-66.188
		C800.097,877.24,798.597,865.895,797.402,854.549z"/>
	
		<ellipse transform="matrix(0.0838 -0.9965 0.9965 0.0838 -36.2739 1430.207)" fill="#CEB997" cx="759.627" cy="734.83" rx="3.54" ry="21.707"/>
	
		<ellipse transform="matrix(0.1019 -0.9948 0.9948 0.1019 -75.5692 1444.97)" fill="#CEB997" cx="762.487" cy="764.338" rx="3.539" ry="21.706"/>
	
		<ellipse transform="matrix(0.0786 -0.9969 0.9969 0.0786 -86.2146 1494.4114)" fill="#CEB997" cx="765.33" cy="793.846" rx="3.539" ry="21.706"/>
	
		<ellipse transform="matrix(0.089 -0.996 0.996 0.089 -120.2544 1515.218)" fill="#CEB997" cx="768.198" cy="823.349" rx="3.539" ry="21.706"/>
	
		<ellipse transform="matrix(0.0886 -0.9961 0.9961 0.0886 -146.7788 1545.3329)" fill="#CEB997" cx="771.054" cy="852.873" rx="3.54" ry="21.707"/>
	
		<ellipse transform="matrix(0.0882 -0.9961 0.9961 0.0882 -173.2884 1575.4375)" fill="#CEB997" cx="773.905" cy="882.374" rx="3.539" ry="21.706"/>
	
		<ellipse transform="matrix(0.0882 -0.9961 0.9961 0.0882 -200.0728 1605.1951)" fill="#CEB997" cx="776.767" cy="911.883" rx="3.539" ry="21.706"/>
	<path fill="#CEB997" d="M27.227-114.102"/>
	<path fill="none" stroke="#AD987D" stroke-width="7" stroke-linecap="round" stroke-miterlimit="10" d="M947.249,799.711
		c4.113-16.705,9.765-33.599,18.888-48.273c17.365-27.932,40.798-26.187,62.792-3.588c19.858,20.404,31.838,46.033,48.898,68.402
		c16.289,21.36,44.565,19.091,65.373,5.237c33.276-22.156,60.224-104.768,111.599-85.319"/>
	<path fill="none" stroke="#CEB997" stroke-width="7" stroke-linecap="round" stroke-miterlimit="10" d="M945.396,797.858
		c4.113-16.705,9.765-33.599,18.888-48.273c17.365-27.932,40.798-26.187,62.792-3.588c19.858,20.404,31.838,46.033,48.898,68.402
		c16.289,21.36,44.565,19.091,65.373,5.237c33.276-22.156,60.224-104.768,111.599-85.319"/>
	<path fill="#EFD9AB" d="M306.884-147.36c0,13.893-11.262,25.155-25.155,25.155c-13.893,0-25.155-11.262-25.155-25.155
		s11.262-20.364,25.155-20.364C295.622-167.723,306.884-161.253,306.884-147.36z"/>
	<circle fill="#EFD9AB" cx="282.688" cy="-112.223" r="25.155"/>
	<circle fill="#EFD9AB" cx="281.73" cy="-76.128" r="25.155"/>
	<circle fill="#EFD9AB" cx="279.813" cy="-44.824" r="25.155"/>
	<circle fill="#EFD9AB" cx="282.688" cy="-11.604" r="25.155"/>
	<circle fill="#EFD9AB" cx="280.771" cy="19.701" r="25.155"/>
	<path fill="#EFD9AB" d="M307.842,52.921c0,13.893-11.262,20.364-25.155,20.364c-13.893,0-25.155-6.471-25.155-20.364
		s11.262-25.155,25.155-25.155C296.581,27.767,307.842,39.028,307.842,52.921z"/>
	<path fill="none" stroke="#9B876D" stroke-width="7" stroke-linecap="round" stroke-miterlimit="10" d="M947.249,822.054
		c32.198,31.005,74.607,53.115,119.01,59.967c23.388,3.609,48.096,2.368,70.479-5.694c21.363-7.694,36.656-22.598,54.143-36.315
		c21.82-17.117,44.163-20.6,71.33-19.81"/>
	<path fill="none" stroke="#BFA784" stroke-width="7" stroke-linecap="round" stroke-miterlimit="10" d="M945.396,820.201
		c32.198,31.005,74.607,53.115,119.01,59.967c23.388,3.609,48.096,2.368,70.479-5.694c21.363-7.694,36.656-22.598,54.143-36.315
		c21.82-17.117,44.163-20.6,71.329-19.81"/>
	<path fill="none" stroke="#C1A280" stroke-width="7" stroke-linecap="round" stroke-miterlimit="10" d="M947.249,916.8
		c9.274-0.271,16.744-6.056,24.858-9.798c9.659-4.455,19.945-7.491,29.812-11.436c18.654-7.458,36.051-17.377,52.662-28.622
		c34.946-23.658,69.173-48.225,105.947-69.045c21.431-12.133,43.108-23.826,64.628-35.8"/>
	<path fill="none" stroke="#E2BF93" stroke-width="7" stroke-linecap="round" stroke-miterlimit="10" d="M945.396,914.948
		c9.274-0.271,16.744-6.056,24.858-9.798c9.659-4.455,19.945-7.491,29.812-11.436c18.654-7.458,36.051-17.377,52.663-28.622
		c34.946-23.658,69.173-48.225,105.947-69.045c21.431-12.133,43.108-23.826,64.628-35.8"/>
	<path fill="#7F7F7F" d="M943.425,636.854c0.623,0.815,1.338,1.579,1.833,2.465c0.262,0.47,0.194,1.154,0.184,1.74
		c-0.079,4.703-0.207,9.406-0.269,14.109c-0.116,8.802-0.568,11.62-0.191,20.402c0.383,8.909-0.615,17.793-0.104,26.66
		c0.502,8.699-0.313,17.355-0.164,26.031c0.022,1.275-0.16,2.555-0.099,3.826c0.102,2.097-0.798,3.853-1.659,5.655
		c-0.811,1.698-2.093,2.985-3.445,4.219c-0.994,0.907-1.975,1.849-3.076,2.61c-1.559,1.079-3.25,1.966-4.831,3.015
		c-0.84,0.557-1.564,1.287-2.347,1.93c-0.635,0.522-1.345,0.97-1.908,1.559c-1.162,1.214-1.943,2.62-2.578,4.229
		c-0.515,1.304-0.541,2.536-0.578,3.805c-0.164,5.684-0.63,11.395-0.274,17.051c0.528,8.383-0.213,16.725-0.157,25.086
		c0.05,7.573-0.435,15.161-0.121,22.719c0.379,9.112-0.148,18.195-0.163,27.291c-0.012,7.644-0.458,15.301-0.133,22.928
		c0.385,9.043-0.16,18.055-0.166,27.081c-0.006,8.065-0.457,16.144-0.125,24.192c0.23,5.569-0.061,11.106,0.003,16.657
		c0.031,2.665-0.732,5.063-2.13,7.321c-1.231,1.987-2.873,3.249-5.225,3.563c-0.558,0.075-1.084,0.465-1.636,0.495
		c-1.828,0.099-3.356-0.705-4.937-1.562c-1.84-0.997-2.825-2.457-3.568-4.318c-0.552-1.383-1.107-2.722-1.062-4.229
		c0.206-6.877,0.003-13.799,0.742-20.619c0.893-8.244,0.315-16.54,1.274-24.731c0.972-8.31,0.727-16.64,1.202-24.952
		c0.468-8.192,0.37-16.434,1.209-24.583c0.87-8.455,0.724-16.92,1.2-25.372c0.455-8.088,0.369-16.223,1.192-24.268
		c0.879-8.593,0.709-17.201,1.226-25.792c0.322-5.352,0.583-10.71,0.723-16.069c0.03-1.162-0.536-2.354-0.902-3.509
		c-0.398-1.26-1.105-2.497-2.133-3.181c-1.492-0.993-2.293-2.688-4.022-3.444c-1.033-0.451-1.797-1.5-2.713-2.243
		c-0.761-0.618-1.616-1.126-2.341-1.781c-1.223-1.106-2.351-2.317-3.565-3.434c-1.546-1.422-2.08-3.376-2.854-5.209
		c-0.054-0.127-0.089-0.264-0.12-0.399c-0.607-2.638-0.727-5.328-0.371-7.981c1.245-9.297,0.873-18.665,1.365-27.994
		c0.441-8.37,0.377-16.783,1.205-25.111c0.896-9.014,0.712-12.045,1.268-21.055c0.266-4.302,0.479-8.607,0.718-12.91
		c0.043-0.766,1.428-2.779,2.124-2.791c0.526-0.009,1.113,0.392,1.57,0.743c0.316,0.243,0.577,0.69,0.653,1.086
		c0.227,1.173,0.519,2.37,0.489,3.55c-0.662,25.689-1.366,45.376-2.056,71.064c-0.031,1.158-0.079,2.32-0.009,3.474
		c0.134,2.239,1.964,4.676,4.231,4.667c1.44-0.005,3.094-1.25,3.75-2.532c1.008-1.972,1.106-4.059,1.163-6.18
		c0.685-25.336,1.37-44.673,2.057-70.009c0.024-0.877,0.144-1.757,0.094-2.629c-0.088-1.536,1.162-2.089,2.061-2.871
		c0.126-0.11,0.749,0.262,1.082,0.497c0.729,0.514,1.266,1.179,1.271,2.133c0.004,0.948,0.003,1.896-0.023,2.843
		c-0.749,27.793-1.519,49.585-2.208,77.38c-0.042,1.7,0.356,3.482,0.901,5.108c0.725,2.161,3.479,3.194,5.466,2.101
		c0.849-0.467,1.609-1.174,2.143-2.197c0.797-1.526,0.706-3.084,0.75-4.64c0.774-27.687,1.511-49.375,2.28-77.062
		c0.036-1.283,0.272-2.561,0.441-3.838c0.065-0.487,1.624-2.079,2.043-1.98c0.484,0.115,1.05,0.4,1.32,0.791
		c0.437,0.633,0.774,1.388,0.942,2.138c0.149,0.666,0.02,1.397,0.001,2.098c-0.7,25.933-1.388,45.866-2.131,71.798
		c-0.054,1.884,0.407,3.619,0.974,5.33c0.682,2.057,3.619,3.145,5.472,2.023c0.951-0.576,1.617-1.525,2.171-2.591
		c0.749-1.441,0.679-2.923,0.72-4.413c0.717-26.003,1.411-46.006,2.138-72.009c0.031-1.104,0.26-2.217,0.534-3.291
		c0.098-0.382,0.579-0.692,0.934-0.973c0.285-0.226,0.644-0.359,0.971-0.533C943.221,636.972,943.323,636.913,943.425,636.854z"/>
	<path fill="#7F7F7F" d="M917.836,940.434c1.328-0.05,2.67-0.244,3.983-0.128c10.881,0.964,21.724-0.389,32.588-0.48
		c10.092-0.084,20.198-0.828,30.271-0.49c11.647,0.391,23.234-0.485,34.85-0.626c10.092-0.123,20.197-0.839,30.269-0.499
		c11.38,0.384,22.701-0.467,34.05-0.605c10.093-0.123,20.198-0.838,30.271-0.5c11.381,0.382,22.703-0.528,34.054-0.565
		c0.719-0.002,1.46,0.504,2.154,0.429c2.251-0.244,4.554-0.415,6.704-1.058c2.072-0.62,4.081-1.626,5.928-2.768
		c1.754-1.085,3.297-2.527,4.872-3.882c1.794-1.543,3.541-3.143,5.271-4.757c1.348-1.257,2.598-2.621,3.969-3.851
		c1.36-1.219,2.807-2.343,4.235-3.484c1.196-0.955,2.42-1.874,3.631-2.809c0.852-0.658,1.654-1.398,2.566-1.961
		c2.054-1.269,4.153-2.466,6.254-3.658c0.482-0.273,1.04-0.417,1.571-0.598c2.732-0.932,5.412-1.964,8.226-2.716
		c3.328-0.89,6.706-1.052,10.026-1.678c3.661-0.69,7.316-1.019,10.997-0.97c3.442,0.045,6.88,0.44,10.32,0.681
		c0.177,0.012,0.353,0.031,0.529,0.047c3.776,0.341,7.561,0.604,11.323,1.062c1.49,0.182,2.914,0.852,4.392,1.197
		c0.889,0.207,1.835,0.155,2.736,0.326c2.229,0.421,4.466,0.823,6.661,1.386c1.74,0.446,3.41,1.155,5.131,1.683
		c1.622,0.498,3.286,0.862,4.903,1.377c1.592,0.508,3.146,1.132,4.717,1.704c1.271,0.463,2.579,0.842,3.805,1.403
		c2.54,1.163,5.308,1.859,7.515,3.725c0.693,0.586,1.604,0.904,2.355,1.431c1.279,0.897,2.575,1.789,3.743,2.819
		c1.072,0.945,2.001,2.055,2.961,3.121c0.712,0.791,1.459,1.571,2.035,2.457c1.134,1.743,2.218,3.478,3.079,5.433
		c1.369,3.109,1.37,6.246,0.792,9.274c-0.369,1.933-1.022,4.07-2.544,5.732c-1.048,1.144-1.598,2.733-2.591,3.942
		c-1.82,2.216-3.568,4.51-6.073,6.086c-2.053,1.291-3.939,2.845-5.976,4.163c-1.092,0.707-2.357,1.142-3.526,1.737
		c-1.328,0.676-2.623,1.417-3.956,2.083c-0.534,0.267-1.132,0.402-1.695,0.611c-2.345,0.869-4.703,1.706-7.027,2.629
		c-1.63,0.648-3.195,1.46-4.823,2.112c-0.841,0.337-1.758,0.486-2.642,0.715c-1.408,0.364-2.823,0.704-4.224,1.091
		c-1.112,0.308-2.206,0.679-3.312,1.009c-0.539,0.161-1.084,0.305-1.632,0.434c-1.804,0.425-3.611,0.837-5.415,1.261
		c-0.124,0.029-0.227,0.158-0.35,0.18c-2.225,0.392-4.439,0.909-6.681,1.134c-5.007,0.502-10.03,0.836-15.042,1.292
		c-1.117,0.102-2.214,0.601-3.321,0.602c-1.552,0.002-3.101-0.349-4.657-0.442c-2.502-0.15-5.02-0.101-7.51-0.347
		c-2.012-0.2-4.02-0.61-5.981-1.114c-2.033-0.522-4.058-1.147-5.996-1.948c-2.678-1.106-5.342-2.289-7.876-3.685
		c-1.896-1.044-3.563-2.499-5.357-3.733c-1.991-1.37-4.067-2.622-5.999-4.069c-1.347-1.009-2.459-2.326-3.775-3.383
		c-1.911-1.535-3.894-2.983-5.881-4.421c-1.059-0.766-2.146-1.519-3.301-2.122c-1.612-0.842-3.264-1.635-4.963-2.28
		c-4.054-1.537-8.27-1.017-12.449-0.795c-10.522,0.56-21.093,0.686-31.551,1.836c-11.1,1.22-22.233,1.17-33.337,1.921
		c-10.335,0.699-20.733,0.718-31.017,1.831c-11.32,1.225-22.675,1.217-34.001,1.968c-10.248,0.68-20.559,0.695-30.752,1.819
		c-11.143,1.229-22.372,0.709-33.452,2.069c-10.523,1.292-21.093,0.973-31.609,1.882c-1.052,0.091-2.094,0.408-3.141,0.411
		c-2.422,0.008-4.904,0.189-7.247-0.276c-1.805-0.358-3.471-1.532-5.132-2.462c-0.924-0.517-1.762-1.224-2.541-1.95
		c-0.368-0.343-0.453-0.971-0.757-1.405c-1.785-2.542-1.797-5.469-1.262-8.245c0.406-2.107,1.779-3.937,3.435-5.517
		c2.007-1.915,4.351-2.696,7.004-3.03c2.062-0.26,4.096-0.747,6.143-1.133C917.799,940.211,917.818,940.323,917.836,940.434z"/>
</g>
<g id="Layer_4">
</g>
</svg>
